# Blender 4.2.0
# www.blender.org
mtllib dodecahedron.mtl
o unit-regular-dodecahedron
v 0.850651 0.000000 0.000000
v 0.262866 0.000000 0.809017
v -0.688191 0.000000 0.500000
v -0.688191 0.000000 -0.500000
v 0.262866 0.000000 -0.809017
v 0.425325 0.850651 1.309017
v 0.262866 0.000000 0.809017
v 0.850651 -0.000000 0.000000
v 1.376382 0.850651 0.000000
v 1.113516 1.376382 0.809017
v -1.113516 0.850651 0.809017
v -0.688191 -0.000000 0.500000
v 0.262866 0.000000 0.809017
v -0.425325 1.376382 1.309017
v -1.113516 0.850651 -0.809017
v -0.688191 -0.000000 0.500000
v -1.376382 1.376382 0.000000
v 0.425325 0.850651 -1.309017
v 0.262866 0.000000 -0.809017
v -0.425325 1.376382 -1.309017
v 1.376382 0.850651 0.000000
v 0.850651 -0.000000 -0.000000
v 0.262866 -0.000000 -0.809017
v 1.113516 1.376382 -0.809017
v 0.688191 2.227033 0.500000
v -0.262866 2.227033 0.809017
v -0.850651 2.227033 -0.000000
v -1.376382 1.376382 -0.000000
v -1.376382 1.376382 0.000000
v -0.850651 2.227033 0.000000
v -0.262866 2.227033 -0.809017
v 0.688191 2.227033 -0.500000
v -0.850651 2.227033 0.000000
vn -0.0000 -1.0000 -0.0000
vn -0.4911 -0.7947 -0.3568
vn 0.3035 -0.1876 0.9342
vn 0.7236 -0.4472 0.5257
vn 0.7947 0.1876 0.5774
vn -0.7946 -0.1876 0.5774
vn -0.2764 -0.4472 0.8507
vn -0.3035 0.1876 0.9342
vn -0.7947 -0.1876 -0.5773
vn -0.8944 -0.4472 -0.0000
vn 0.3035 -0.1876 -0.9342
vn -0.2764 -0.4472 -0.8507
vn -0.3035 0.1876 -0.9342
vn 0.9511 -0.0000 -0.3090
vn 0.7236 -0.4472 -0.5257
vn 0.7947 0.1876 -0.5774
vn 0.4911 0.7947 0.3568
vn -0.1876 0.7947 0.5773
vn -0.7236 0.4472 0.5257
vn -0.7236 0.4472 -0.5257
vn -0.1876 0.7947 -0.5773
vn 0.4911 0.7947 -0.3568
vn -0.0000 1.0000 -0.0000
s 1
f 1//1 2//1 3//1
f 1//1 3//1 4//2
f 1//1 4//2 5//1
f 6//3 7//4 8//4
f 6//3 8//4 9//4
f 6//3 9//4 10//5
f 11//6 12//7 13//7
f 11//6 13//7 6//3
f 11//6 6//3 14//8
f 15//9 4//2 16//10
f 15//9 16//10 11//6
f 15//9 11//6 17//10
f 18//11 19//12 4//2
f 18//11 4//2 15//9
f 18//11 15//9 20//13
f 21//14 22//15 23//15
f 21//14 23//15 18//11
f 21//14 18//11 24//16
f 6//3 10//5 25//17
f 6//3 25//17 26//18
f 6//3 26//18 14//8
f 11//6 14//8 26//18
f 11//6 26//18 27//19
f 11//6 27//19 28//19
f 15//9 29//20 30//20
f 15//9 30//20 31//21
f 15//9 31//21 20//13
f 18//11 20//13 31//21
f 18//11 31//21 32//22
f 18//11 32//22 24//16
f 21//14 24//16 32//22
f 21//14 32//22 25//17
f 21//14 25//17 10//5
f 33//23 26//18 25//17
f 33//23 25//17 32//22
f 33//23 32//22 31//21
