# Blender 4.2.0
# www.blender.org
mtllib octahedron.mtl
o unit-regular-octahedron
v 0.000000 0.000000 0.707107
v 0.707107 0.000000 0.000000
v 0.000000 0.707107 -0.000000
v -0.707107 0.000000 0.000000
v -0.000000 0.000000 -0.707107
v 0.000000 -0.707107 0.000000
vn -0.0000 -0.0000 1.0000
vn 1.0000 -0.0000 -0.0000
vn -0.0000 1.0000 -0.0000
vn -1.0000 -0.0000 -0.0000
vn -0.0000 -0.0000 -1.0000
vn -0.0000 -1.0000 -0.0000
s 1
f 1//1 2//2 3//3
f 4//4 1//1 3//3
f 5//5 4//4 3//3
f 2//2 5//5 3//3
f 4//4 5//5 6//6
f 1//1 4//4 6//6
f 2//2 1//1 6//6
f 5//5 2//2 6//6
